<?xml version="1.0" standalone="no"?>
<!DOCTYPE svg PUBLIC "-//W3C//DTD SVG 20010904//EN"
 "http://www.w3.org/TR/2001/REC-SVG-20010904/DTD/svg10.dtd">
<svg version="1.0" xmlns="http://www.w3.org/2000/svg"
 width="1024.000000pt" height="547.000000pt" viewBox="0 0 1024.000000 547.000000"
 preserveAspectRatio="xMidYMid meet">

<g transform="translate(0.000000,547.000000) scale(0.100000,-0.100000)"
fill="#000000" stroke="none">
<path d="M6810 5239 c-52 -22 -101 -42 -107 -45 -15 -7 -17 -82 -4 -116 5 -13
35 -104 67 -203 56 -174 59 -181 109 -230 27 -27 72 -62 98 -77 52 -30 67 -56
60 -104 -4 -27 -20 -42 -101 -97 -133 -90 -248 -184 -367 -299 l-100 -97 -45
43 c-63 61 -146 114 -283 182 l-118 59 -72 -37 c-156 -81 -154 -78 -111 -191
14 -37 23 -71 20 -74 -4 -4 -55 1 -114 10 -162 26 -147 31 -245 -85 -67 -80
-87 -110 -87 -133 0 -26 23 -55 140 -180 218 -234 292 -285 415 -285 30 0 55
-2 55 -5 0 -3 -16 -52 -36 -108 -90 -258 -119 -434 -119 -722 0 -220 5 -267
45 -460 114 -542 439 -1002 934 -1327 347 -227 716 -350 1117 -373 170 -10
180 -1 133 122 -54 144 -71 215 -90 397 -9 94 -23 101 -179 109 -244 12 -479
71 -655 165 -413 221 -659 574 -747 1072 -24 139 -28 432 -9 590 100 796 562
1310 1251 1391 55 6 164 8 280 4 167 -6 199 -5 255 11 132 37 231 119 291 239
29 59 35 82 38 152 4 109 -15 166 -81 239 -75 82 -131 107 -249 112 -83 4
-110 0 -210 -26 -143 -39 -290 -89 -441 -153 -65 -27 -122 -49 -126 -49 -18 0
-32 54 -32 126 0 92 -16 134 -78 197 -101 104 -357 298 -390 296 -9 -1 -60
-19 -112 -40z m13 -166 c33 -102 117 -276 157 -325 17 -21 59 -49 104 -71 54
-26 79 -45 90 -66 26 -49 21 -76 -20 -100 l-35 -21 -14 33 c-22 48 -34 60
-113 111 -40 25 -81 61 -92 79 -22 36 -140 386 -140 415 0 10 3 22 7 25 17 18
30 0 56 -80z m1458 -298 c114 -58 163 -149 145 -270 -8 -49 -26 -52 -26 -4 0
86 -100 169 -204 169 -123 0 -483 -113 -778 -244 -458 -203 -849 -502 -1093
-836 -55 -76 -62 -84 -45 -50 52 100 196 287 325 419 323 333 747 591 1240
754 262 87 359 101 436 62z m-2345 -707 c16 -34 41 -79 57 -100 32 -45 33 -48
6 -48 -32 0 -72 48 -104 123 -24 58 -26 70 -14 78 22 14 24 13 55 -53z m-296
-399 c200 -178 290 -229 407 -229 l53 0 -20 -40 c-23 -45 -59 -57 -136 -46
-92 12 -163 67 -343 264 -99 109 -120 136 -110 148 6 8 14 14 18 14 3 0 62
-50 131 -111z"/>
<path d="M3908 5106 c-139 -31 -248 -117 -311 -246 -50 -102 -63 -192 -43
-288 43 -207 211 -357 423 -379 206 -22 425 138 479 347 66 259 -105 525 -367
569 -79 13 -107 13 -181 -3z m206 -163 c67 -24 139 -91 172 -161 90 -190 -44
-415 -256 -429 -122 -9 -241 61 -296 174 -23 46 -28 69 -28 132 0 65 4 84 29
130 36 65 111 134 168 154 58 21 152 21 211 0z"/>
<path d="M3930 4788 c-56 -39 -75 -73 -74 -134 0 -85 55 -143 142 -152 94 -9
165 57 165 153 0 91 -65 155 -156 155 -29 0 -55 -8 -77 -22z"/>
<path d="M1151 5034 c-216 -78 -319 -329 -221 -537 34 -73 100 -139 176 -178
64 -32 74 -34 168 -34 88 0 108 3 158 27 117 54 197 164 220 299 28 160 -71
345 -220 411 -64 29 -218 35 -281 12z"/>
<path d="M3145 4034 c-535 -904 -602 -1018 -613 -1040 -11 -20 -7 -24 44 -50
65 -33 172 -127 215 -190 62 -91 93 -166 113 -274 l12 -65 46 70 c364 559 528
822 528 844 0 14 5 134 10 266 31 762 31 783 10 831 -11 24 -26 67 -33 95
l-14 51 -318 -538z m274 134 c-6 -131 -6 -134 -44 -198 -70 -119 -387 -654
-430 -725 -24 -38 -53 -88 -65 -110 -12 -22 -43 -74 -68 -116 l-46 -77 -50 35
c-28 19 -50 40 -48 46 2 6 142 245 311 531 169 287 334 566 366 621 51 88 74
125 79 125 0 0 -2 -60 -5 -132z"/>
<path d="M9140 4424 c-14 -2 -59 -9 -99 -15 -318 -47 -636 -281 -780 -574 -72
-148 -85 -204 -85 -370 0 -117 4 -152 23 -215 49 -160 137 -296 284 -436 99
-96 221 -179 385 -262 107 -55 144 -82 112 -82 -38 0 -287 -139 -330 -185 -38
-40 -34 -98 8 -136 53 -47 110 -37 291 51 215 105 417 119 584 40 130 -62 218
-244 217 -453 -1 -147 -49 -278 -149 -408 -151 -194 -503 -415 -749 -469 -101
-23 -185 -25 -318 -8 -115 14 -127 8 -100 -49 57 -121 238 -339 334 -403 56
-37 80 -36 193 10 234 97 491 264 667 434 328 317 467 673 407 1044 -39 239
-162 421 -372 551 -297 184 -345 232 -452 447 -80 162 -120 194 -184 144 -54
-43 -58 -122 -12 -249 13 -36 23 -67 21 -69 -4 -4 -94 49 -154 90 -61 42 -181
162 -237 239 -93 127 -144 266 -130 359 32 214 182 371 433 453 56 18 91 22
207 22 131 0 144 -2 210 -29 39 -16 95 -46 125 -67 119 -84 141 -93 213 -97
112 -7 203 39 254 126 38 64 38 150 0 214 -65 112 -260 249 -437 307 -108 36
-292 57 -380 45z"/>
<path d="M4394 4269 c-101 -106 -228 -159 -380 -159 -144 0 -264 44 -364 134
-18 15 -33 26 -35 24 -2 -2 -8 -154 -14 -338 -6 -184 -16 -470 -23 -635 -11
-298 -11 -301 11 -366 42 -127 113 -207 230 -262 61 -29 74 -32 166 -31 87 0
108 4 159 27 128 58 214 163 240 290 9 48 18 198 26 447 6 206 15 494 20 639
5 146 8 266 7 268 -2 1 -21 -16 -43 -38z m-620 -223 l58 -23 -1 -138 c-1 -76
-4 -141 -5 -144 -2 -3 -9 -190 -15 -416 -6 -225 -14 -435 -17 -465 l-6 -54
-29 34 c-16 19 -40 59 -55 88 -24 50 -25 62 -25 210 1 258 26 932 35 932 2 0
29 -11 60 -24z m245 -1131 c55 -28 60 -104 9 -139 -33 -24 -72 -20 -102 10
-37 38 -36 84 5 118 35 30 49 32 88 11z"/>
<path d="M1001 4059 c-97 -34 -182 -115 -228 -218 -13 -30 -76 -273 -139 -540
-130 -552 -166 -704 -200 -846 -23 -95 -56 -234 -143 -605 -21 -91 -64 -271
-94 -401 -99 -419 -102 -432 -83 -508 28 -113 87 -176 195 -207 65 -19 96 -17
386 26 116 17 239 35 275 40 36 4 130 18 210 29 80 11 181 26 225 32 152 21
210 71 210 180 0 44 -6 65 -27 96 -44 67 -68 74 -398 109 -91 9 -167 18 -168
20 -2 1 7 40 21 86 13 46 32 112 42 148 10 36 28 101 40 145 13 44 25 89 28
100 5 22 149 538 231 830 30 105 58 205 62 223 5 19 13 34 19 35 11 2 336
-407 425 -534 99 -144 148 -174 270 -167 81 4 135 35 184 106 25 35 31 55 34
113 6 92 -15 146 -75 198 -42 38 -88 55 -172 63 -18 2 -32 18 -56 63 -17 33
-100 193 -184 355 -85 162 -177 340 -206 395 -29 55 -99 192 -156 305 -121
237 -165 293 -262 329 -75 27 -189 28 -266 0z"/>
<path d="M7567 4039 c-132 -23 -231 -56 -362 -121 -55 -28 -102 -52 -104 -54
-3 -2 14 -20 37 -40 52 -44 53 -61 12 -182 -42 -127 -41 -206 5 -347 58 -176
191 -479 219 -497 22 -15 77 -7 172 23 152 48 182 64 198 101 23 51 63 191 98
339 27 117 31 153 32 284 1 175 -1 180 -100 286 -38 41 -64 77 -64 90 0 12 13
48 30 80 l30 59 -48 -1 c-26 0 -95 -9 -155 -20z m-181 -171 c27 -59 21 -110
-22 -219 -34 -84 -38 -103 -37 -179 1 -97 37 -252 102 -445 23 -65 41 -123 41
-128 0 -4 -12 -7 -27 -5 -25 3 -33 15 -75 108 -54 121 -131 324 -148 390 -18
68 -15 148 9 210 50 129 54 172 26 243 -6 14 3 22 46 42 30 13 57 24 60 24 3
1 14 -18 25 -41z"/>
<path d="M2127 2922 c-38 -9 -67 -21 -66 -27 1 -5 23 -54 50 -107 42 -84 53
-98 74 -98 13 0 50 -10 82 -21 69 -26 145 -98 175 -167 79 -178 -25 -397 -212
-447 -89 -24 -146 -17 -252 29 -13 6 -27 -11 -68 -80 l-52 -88 33 -28 c36 -30
108 -66 185 -93 70 -25 249 -26 327 -2 113 35 169 68 253 152 87 87 131 162
160 276 24 95 15 251 -20 344 -63 165 -176 278 -341 341 -92 35 -228 42 -328
16z m275 -92 c159 -49 273 -166 322 -329 21 -71 21 -211 0 -282 -51 -174 -208
-318 -381 -350 -110 -21 -303 9 -303 47 0 23 46 46 78 39 41 -9 164 19 222 51
106 57 185 170 211 301 33 162 -66 355 -221 429 -56 27 -90 66 -90 103 0 18
92 13 162 -9z"/>
<path d="M2606 2409 c-19 -15 -26 -30 -26 -53 0 -42 26 -66 72 -66 66 0 91 68
43 115 -30 30 -54 31 -89 4z"/>
<path d="M3620 2661 c0 -22 -4 -73 -10 -113 -5 -40 -16 -134 -25 -208 -8 -74
-33 -292 -56 -483 -22 -192 -39 -353 -37 -359 2 -5 56 33 121 85 138 113 180
132 272 125 79 -7 110 -25 265 -152 l115 -94 7 202 c10 278 26 980 23 984 -1
1 -29 -14 -61 -33 -182 -110 -387 -94 -562 44 l-52 41 0 -39z m561 -595 c-5
-208 -11 -380 -14 -382 -3 -3 -30 14 -61 38 l-56 43 0 95 c0 52 3 205 7 340
l6 246 61 14 c55 14 61 14 64 -1 2 -9 -1 -186 -7 -393z"/>
<path d="M5260 2385 c-161 -40 -320 -162 -391 -300 -38 -74 -40 -100 -8 -110
26 -9 31 -4 75 71 103 176 271 274 470 274 44 0 104 -7 133 -16 61 -18 84 -8
79 35 -3 23 -11 28 -68 43 -78 20 -213 21 -290 3z"/>
<path d="M5340 2224 c-140 -27 -263 -114 -321 -226 -23 -45 -24 -62 -4 -78 21
-18 51 -3 66 32 20 49 112 136 174 164 67 31 156 41 220 25 36 -9 50 -9 61 0
22 18 13 52 -16 66 -29 13 -142 24 -180 17z"/>
<path d="M5351 2049 c-117 -22 -229 -153 -161 -189 17 -9 24 -6 45 16 14 15
25 31 25 35 0 5 18 21 41 36 31 20 55 27 100 29 60 3 89 15 89 39 0 31 -65 47
-139 34z"/>
<path d="M8445 1939 c-220 -69 -506 -118 -691 -120 -84 0 -125 -5 -141 -15
-26 -17 -117 -179 -108 -194 19 -31 54 -2 141 118 1 2 76 3 166 3 225 -2 428
33 619 105 l66 24 57 -25 c124 -55 314 -95 304 -65 -4 13 -347 180 -367 179
-9 0 -29 -5 -46 -10z"/>
<path d="M9157 1844 c-44 -24 -269 -107 -397 -147 -452 -139 -857 -198 -1405
-202 -288 -2 -330 -4 -333 -18 -2 -8 2 -18 8 -22 30 -19 347 -44 548 -45 406
0 752 55 1142 182 226 73 505 208 505 244 0 25 -31 28 -68 8z"/>
<path d="M5340 1823 c-26 -18 -59 -54 -60 -64 0 -6 -59 -130 -232 -489 -262
-543 -250 -515 -234 -553 16 -38 72 -77 143 -97 77 -23 108 10 196 208 l28 62
232 0 232 -1 45 -99 c51 -113 88 -165 124 -174 36 -9 135 31 175 71 45 45 42
58 -59 268 -156 322 -241 500 -283 590 -96 205 -122 250 -156 273 -42 27 -115
30 -151 5z m177 -690 c-3 -2 -52 -2 -109 -1 l-105 3 55 115 55 115 54 -114
c29 -63 52 -116 50 -118z"/>
<path d="M3807 1616 c-41 -15 -48 -21 -227 -168 -144 -119 -165 -150 -176
-255 l-7 -73 463 0 462 0 -4 68 c-6 114 -27 144 -201 283 -83 68 -163 129
-179 136 -42 21 -89 25 -131 9z m129 -160 c45 -45 48 -101 6 -147 -24 -27 -36
-32 -75 -33 -37 -1 -51 4 -75 27 -74 71 -26 187 77 187 24 0 42 -9 67 -34z"/>
<path d="M8622 1427 c-18 -5 -54 -29 -79 -51 l-47 -41 -196 -5 -196 -5 -65
-54 c-35 -30 -80 -61 -99 -69 -49 -20 -187 -12 -268 18 -35 12 -66 20 -68 17
-8 -8 80 -65 144 -94 46 -22 73 -27 142 -27 91 -1 86 -3 198 79 49 35 108 40
281 23 184 -18 207 -14 257 46 20 24 47 49 61 55 24 11 159 25 372 39 176 11
156 36 -54 68 -104 16 -335 17 -383 1z"/>
<path d="M3170 1022 c-44 -21 -70 -72 -70 -135 0 -98 38 -139 137 -153 l50 -6
5 -82 c9 -139 46 -176 178 -176 128 0 160 35 160 175 l0 85 209 0 208 0 5 -91
c9 -143 39 -171 180 -167 84 3 89 4 120 36 32 31 33 36 36 126 l4 94 58 6 c71
8 103 31 126 91 19 51 14 110 -13 156 -36 60 -21 59 -720 59 -587 0 -641 -1
-673 -18z"/>
<path d="M8155 765 c8 -84 55 -287 86 -369 30 -83 58 -109 106 -101 93 15 89
10 50 63 -102 139 -177 278 -227 417 l-21 60 6 -70z"/>
<path d="M8325 752 c43 -131 139 -306 208 -379 35 -37 53 -40 122 -17 l48 17
-70 63 c-139 126 -233 234 -320 370 -7 11 -1 -14 12 -54z"/>
</g>
</svg>
