<?xml version="1.0" standalone="no"?>
<!DOCTYPE svg PUBLIC "-//W3C//DTD SVG 20010904//EN"
 "http://www.w3.org/TR/2001/REC-SVG-20010904/DTD/svg10.dtd">
<svg version="1.0" xmlns="http://www.w3.org/2000/svg"
 width="3252.000000pt" height="1645.000000pt" viewBox="0 0 3252.000000 1645.000000"
 preserveAspectRatio="xMidYMid meet">

<g transform="translate(0.000000,1645.000000) scale(0.100000,-0.100000)"
fill="#000000" stroke="none">
<path d="M22155 15813 c-216 -83 -519 -207 -557 -228 -70 -39 -88 -67 -88
-134 0 -96 81 -395 215 -790 138 -408 209 -578 279 -669 83 -109 150 -161 366
-285 58 -33 124 -98 146 -145 10 -20 20 -65 22 -99 7 -107 -20 -139 -278 -328
-582 -425 -778 -587 -1125 -925 -99 -96 -201 -195 -227 -219 l-48 -45 -42 34
c-24 19 -95 79 -157 134 -158 136 -251 203 -394 284 -213 121 -575 297 -702
342 -59 20 -72 17 -205 -50 -233 -116 -409 -224 -436 -266 -26 -39 -13 -142
36 -282 88 -252 85 -239 70 -257 -19 -23 -86 -17 -435 41 -148 24 -286 47
-306 50 -34 5 -39 2 -109 -73 -102 -110 -352 -424 -408 -512 -37 -60 -47 -85
-50 -131 -7 -98 3 -112 382 -508 225 -236 505 -512 655 -646 136 -121 379
-212 591 -222 149 -7 170 -11 170 -34 0 -10 -29 -99 -64 -197 -240 -674 -382
-1424 -411 -2173 -13 -333 39 -880 126 -1330 138 -705 363 -1316 701 -1904
478 -830 1164 -1554 2010 -2124 858 -577 1728 -930 2678 -1086 224 -37 393
-54 665 -67 363 -17 485 -5 515 52 21 38 4 117 -79 372 -143 438 -179 599
-231 1047 -24 215 -33 245 -79 291 -56 56 -89 62 -546 95 -478 34 -819 94
-1188 208 -455 142 -903 377 -1319 693 -440 334 -864 847 -1118 1353 -216 431
-399 1032 -480 1580 -32 218 -45 656 -31 1064 16 488 36 684 102 1006 186 902
516 1649 995 2250 130 163 438 474 587 592 289 230 614 419 952 556 249 100
682 224 895 256 153 23 457 35 1145 45 697 10 682 8 875 102 148 71 257 147
373 258 119 115 212 240 277 376 89 186 120 318 120 510 0 200 -39 347 -134
509 -49 83 -205 246 -291 303 -244 164 -507 222 -798 178 -324 -49 -1042 -266
-1497 -453 -376 -155 -526 -212 -554 -212 -74 0 -93 58 -111 333 -8 122 -19
242 -25 266 -36 149 -157 298 -452 557 -368 323 -848 676 -914 673 -10 -1 -37
-8 -59 -16z m-291 -476 c127 -374 328 -822 450 -1002 84 -126 146 -177 326
-275 216 -118 301 -185 341 -274 23 -50 25 -136 4 -177 -15 -28 -77 -74 -152
-113 l-32 -16 -51 99 c-59 115 -111 171 -242 263 -286 199 -348 255 -394 353
-84 182 -348 977 -370 1116 -4 21 -4 53 0 71 8 41 42 98 58 98 8 0 34 -60 62
-143z m4230 -967 c149 -38 326 -137 409 -230 135 -149 194 -355 169 -592 -18
-170 -33 -180 -67 -43 -26 108 -50 163 -104 243 -93 137 -249 234 -424 262
-251 40 -1225 -234 -2091 -589 -379 -156 -678 -295 -931 -434 -263 -144 -729
-433 -960 -595 -680 -477 -1167 -937 -1610 -1522 -73 -96 -145 -186 -160 -200
l-27 -25 22 45 c42 83 217 340 379 555 357 475 912 1031 1406 1408 561 429
1095 747 1821 1083 559 258 1020 423 1634 583 286 75 400 86 534 51z m-6842
-2105 c70 -138 141 -264 210 -369 32 -48 58 -92 58 -97 0 -17 -20 -19 -67 -8
-70 17 -128 54 -161 102 -75 109 -192 375 -192 437 0 35 4 43 33 60 l32 20 19
-22 c10 -13 41 -68 68 -123z m-1186 -943 c21 -16 140 -118 264 -228 394 -349
548 -471 725 -575 186 -111 309 -146 538 -156 81 -3 150 -10 153 -14 8 -13
-64 -156 -97 -193 -39 -45 -103 -61 -249 -61 -104 1 -124 4 -210 33 -158 55
-284 136 -471 304 -153 137 -734 767 -762 826 -8 17 -7 31 6 57 21 44 49 46
103 7z"/>
<path d="M12845 15435 c-111 -25 -278 -103 -414 -193 -118 -78 -300 -262 -383
-387 -37 -55 -100 -165 -141 -245 -77 -150 -114 -229 -488 -1055 -122 -269
-283 -625 -359 -790 -76 -165 -213 -466 -305 -670 -92 -203 -237 -521 -322
-705 -281 -606 -588 -1280 -637 -1397 -14 -34 -117 -261 -230 -505 -223 -485
-283 -623 -292 -668 -7 -33 11 -62 143 -228 108 -135 231 -327 323 -501 113
-214 132 -241 176 -241 19 0 47 6 62 14 41 22 159 147 263 281 52 66 137 172
189 236 52 64 122 154 154 200 151 213 345 463 881 1134 193 242 400 503 460
579 61 77 252 317 425 535 174 218 392 493 485 611 93 118 348 438 565 710
745 932 886 1123 1001 1355 83 167 109 275 116 475 3 85 0 224 -6 308 -13 176
-31 243 -110 400 -152 303 -369 518 -664 657 -142 67 -194 83 -298 95 -126 15
-522 11 -594 -5z m513 -411 c42 -9 109 -28 148 -43 231 -90 494 -380 559 -617
9 -33 18 -119 21 -194 13 -309 -61 -507 -266 -710 -149 -148 -305 -229 -481
-251 -117 -14 -352 -6 -434 16 -133 35 -319 157 -417 272 -62 72 -150 220
-185 310 -25 64 -27 80 -31 273 -2 123 0 229 7 265 22 122 151 337 269 448
114 106 290 199 438 231 93 20 276 20 372 0z"/>
<path d="M13043 14550 c-151 -30 -286 -186 -315 -366 -30 -176 68 -381 218
-457 131 -66 254 -82 365 -47 253 78 392 387 278 618 -35 72 -133 182 -193
217 -70 41 -239 57 -353 35z"/>
<path d="M4785 15270 c-27 -4 -84 -20 -125 -35 -356 -129 -646 -429 -731 -755
-14 -53 -23 -139 -31 -295 -14 -274 -7 -317 80 -498 140 -292 265 -422 547
-566 159 -82 166 -83 450 -88 294 -5 350 3 492 71 230 111 408 274 526 481 76
134 120 308 133 530 18 311 -87 590 -308 821 -109 113 -190 173 -323 240 -163
81 -230 95 -465 99 -107 2 -217 0 -245 -5z"/>
<path d="M28875 13289 c-710 -61 -1306 -292 -1840 -716 -140 -110 -419 -388
-521 -518 -317 -402 -509 -840 -580 -1322 -25 -169 -23 -463 5 -638 74 -460
220 -785 544 -1211 408 -537 721 -785 1537 -1219 240 -127 358 -208 319 -218
-121 -33 -484 -206 -679 -323 -208 -125 -354 -252 -381 -329 -44 -130 18 -275
151 -353 41 -25 54 -27 150 -27 130 0 154 8 500 160 486 214 636 267 890 317
169 33 459 33 615 -1 537 -114 870 -479 996 -1091 22 -103 24 -140 24 -360 -1
-227 -3 -254 -27 -371 -75 -347 -242 -663 -526 -991 -407 -472 -1395 -1086
-2001 -1244 -224 -58 -658 -79 -1028 -50 -342 27 -360 24 -351 -56 19 -163
410 -706 774 -1073 137 -138 222 -205 314 -248 120 -57 265 -39 510 64 154 65
454 213 631 311 484 269 941 601 1295 940 456 437 747 819 983 1288 148 296
211 481 266 783 80 440 78 712 -10 1193 -54 294 -133 495 -308 779 -124 201
-312 397 -567 590 -105 79 -345 239 -534 355 -210 129 -477 339 -604 475 -127
136 -302 417 -421 674 -75 164 -158 310 -220 388 -44 55 -123 113 -153 113
-38 0 -147 -59 -188 -101 -137 -140 -141 -343 -14 -742 30 -94 54 -179 54
-190 0 -16 -11 -12 -87 29 -239 129 -463 313 -778 635 -251 257 -354 395 -477
638 -169 335 -222 565 -184 806 46 300 179 557 406 786 284 286 625 464 1036
544 222 43 660 45 849 5 252 -53 409 -129 717 -346 205 -144 340 -200 507
-211 240 -16 466 69 631 236 120 121 177 233 199 396 34 244 -68 447 -354 708
-427 389 -944 628 -1530 707 -101 13 -394 40 -420 39 -11 -1 -65 -6 -120 -10z"/>
<path d="M14249 12513 c-71 -96 -301 -387 -889 -1128 -162 -203 -349 -440
-416 -525 -67 -85 -185 -234 -261 -330 -76 -96 -161 -204 -188 -240 -27 -36
-153 -195 -280 -355 -274 -344 -418 -532 -440 -574 -28 -55 -69 -272 -381
-2041 -376 -2135 -367 -2073 -367 -2335 0 -172 12 -252 61 -400 35 -106 146
-329 217 -435 171 -254 414 -467 690 -605 417 -208 862 -239 1304 -93 518 171
935 594 1120 1135 68 198 74 257 79 778 4 459 -9 1433 -28 2105 -6 184 -19
758 -30 1275 -58 2731 -90 3839 -114 3862 -2 2 -36 -40 -77 -94z m-1144 -6313
c221 -54 513 -301 667 -565 69 -118 88 -174 100 -299 13 -140 4 -492 -15 -561
-45 -163 -154 -342 -299 -491 -200 -206 -385 -301 -636 -325 -150 -15 -397 -6
-472 16 -81 25 -294 137 -375 197 -209 155 -359 377 -436 646 -56 192 -51 420
12 613 103 315 337 575 650 723 52 25 117 49 144 55 69 14 596 7 660 -9z"/>
<path d="M12602 5620 c-29 -6 -71 -19 -93 -31 -91 -46 -195 -169 -263 -309
-34 -71 -41 -97 -45 -158 -9 -191 75 -362 232 -472 85 -60 150 -85 261 -102
74 -10 95 -10 167 6 46 10 111 32 144 48 85 44 202 163 246 253 l34 70 -1 145
c0 167 -16 244 -67 329 -58 96 -171 185 -264 208 -74 17 -282 25 -351 13z"/>
<path d="M4297 12354 c-157 -35 -356 -146 -490 -274 -239 -226 -354 -492 -506
-1165 -27 -121 -124 -530 -215 -910 -181 -760 -346 -1456 -400 -1695 -19 -85
-123 -526 -231 -980 -108 -454 -216 -910 -240 -1015 -24 -104 -98 -417 -164
-695 -303 -1272 -461 -1955 -497 -2145 -25 -129 -29 -174 -29 -320 0 -162 2
-174 29 -245 15 -41 51 -118 79 -170 97 -177 223 -273 441 -335 242 -69 385
-62 1226 59 206 30 722 104 1145 165 1092 156 1202 176 1334 238 211 100 296
426 174 667 -35 68 -125 161 -187 191 -109 53 -312 86 -971 160 -310 34 -380
44 -493 66 l-54 11 7 45 c13 89 102 425 280 1063 515 1845 616 2205 792 2845
108 394 216 735 231 735 30 0 152 -139 456 -520 337 -421 557 -704 786 -1010
239 -318 274 -359 370 -430 131 -97 248 -135 415 -133 130 2 231 24 330 73
269 132 405 404 365 733 -26 223 -120 373 -296 479 -121 72 -244 109 -387 117
l-118 6 -303 600 c-291 577 -432 854 -906 1770 -607 1174 -703 1355 -818 1548
-133 223 -203 293 -391 388 -161 81 -207 90 -471 95 -176 3 -240 0 -293 -12z"/>
<path d="M24560 12203 c-116 -9 -530 -78 -657 -109 -286 -69 -686 -228 -1003
-396 -185 -99 -179 -78 -56 -192 161 -149 161 -151 22 -601 -132 -422 -104
-646 166 -1355 168 -440 399 -974 457 -1055 40 -57 100 -96 154 -102 56 -7
163 18 410 93 329 101 437 146 512 215 84 77 104 129 219 549 148 541 199 759
232 992 21 154 31 673 14 792 -22 157 -98 282 -296 487 -66 69 -133 146 -149
172 -24 42 -27 56 -23 112 3 55 14 85 82 223 43 88 76 165 72 171 -7 11 -56
12 -156 4z m-1010 -503 c12 -17 33 -58 48 -93 24 -57 27 -73 26 -192 0 -146
-9 -185 -105 -442 -95 -255 -103 -299 -103 -528 0 -187 2 -210 32 -355 56
-270 177 -705 282 -1013 72 -213 102 -322 98 -359 -3 -29 -7 -33 -37 -36 -55
-6 -110 62 -197 242 -185 386 -428 1006 -488 1244 -70 274 -60 403 59 798 100
334 105 379 52 537 l-33 98 85 40 c103 49 208 88 238 89 13 0 30 -12 43 -30z"/>
<path d="M7720 8954 c-14 -2 -59 -9 -100 -15 -73 -11 -216 -53 -234 -70 -15
-13 39 -150 139 -355 110 -225 134 -257 208 -274 240 -57 461 -172 591 -310
122 -130 206 -299 242 -487 25 -132 16 -348 -20 -466 -51 -172 -122 -282 -270
-425 -95 -91 -225 -181 -314 -217 -113 -45 -212 -60 -402 -59 -197 1 -262 14
-414 80 -47 21 -88 35 -90 33 -17 -20 -196 -332 -227 -396 -31 -63 -38 -86
-31 -100 17 -30 103 -98 201 -157 266 -162 442 -214 804 -237 342 -22 605 27
868 163 324 166 661 515 814 841 98 210 134 370 142 629 13 453 -75 790 -285
1088 -84 120 -395 433 -505 508 -92 63 -192 111 -319 153 -120 39 -159 47
-298 65 -102 12 -431 18 -500 8z"/>
<path d="M17460 7219 c-189 -18 -393 -83 -608 -194 -182 -94 -296 -179 -458
-340 -196 -195 -326 -393 -370 -565 -13 -52 -13 -63 0 -94 28 -68 135 -68 183
0 11 16 48 79 82 139 204 361 532 631 921 759 187 62 250 71 490 71 205 -1
221 -2 359 -33 79 -17 157 -32 173 -32 67 0 108 46 108 120 0 47 -33 78 -117
110 -157 59 -485 84 -763 59z"/>
<path d="M17570 6714 c-14 -2 -70 -11 -125 -20 -169 -27 -394 -128 -540 -244
-141 -112 -309 -316 -366 -444 -31 -72 -36 -145 -11 -176 17 -21 28 -24 80
-25 74 0 96 17 143 111 61 123 183 263 319 366 89 68 245 143 365 175 87 23
120 26 250 27 104 0 178 -6 241 -18 115 -22 151 -19 177 16 24 32 26 97 5 130
-21 31 -93 66 -175 84 -67 14 -314 27 -363 18z"/>
<path d="M17602 6199 c-163 -19 -293 -71 -402 -162 -132 -108 -207 -228 -197
-313 6 -53 27 -79 68 -88 48 -9 82 12 207 135 100 98 132 123 203 158 103 51
169 64 279 56 104 -7 145 9 174 69 17 35 17 41 3 71 -19 41 -66 63 -159 75
-82 11 -76 11 -176 -1z"/>
<path d="M26790 5874 c-41 -7 -146 -34 -233 -59 -614 -178 -1269 -283 -1901
-305 -324 -12 -379 -20 -424 -63 -71 -69 -249 -373 -282 -484 -24 -80 10 -126
74 -99 56 23 113 83 229 239 l111 149 205 -9 c394 -16 631 -4 1003 48 389 54
678 122 1066 251 l244 80 161 -62 c379 -146 641 -214 803 -208 60 2 79 7 88
21 17 27 -2 45 -89 81 -44 18 -177 79 -295 135 -312 149 -484 226 -591 264
-94 34 -94 34 -169 21z"/>
<path d="M28920 5605 c-30 -7 -129 -45 -220 -83 -895 -376 -2008 -674 -3104
-832 -476 -68 -784 -98 -1231 -120 -240 -11 -1236 -30 -1621 -30 -268 0 -279
-2 -252 -56 30 -62 86 -79 368 -113 462 -56 1177 -87 1630 -71 1567 56 2937
381 4125 977 380 191 480 269 417 326 -22 20 -38 20 -112 2z"/>
<path d="M17593 5555 c-119 -32 -160 -71 -263 -250 -59 -104 -262 -514 -405
-820 -54 -115 -193 -406 -308 -645 -507 -1052 -597 -1241 -642 -1344 -44 -101
-47 -114 -42 -171 6 -76 53 -172 106 -216 20 -17 79 -51 131 -76 200 -96 309
-116 406 -74 105 45 145 108 329 511 l128 280 687 0 686 0 119 -251 c190 -402
254 -501 352 -546 63 -29 121 -26 241 13 178 58 326 160 389 268 50 85 -6 219
-552 1336 -125 256 -266 548 -312 650 -119 259 -412 868 -494 1030 -38 74 -84
156 -103 181 -40 55 -112 104 -180 124 -62 19 -204 18 -273 0z m145 -1448 c33
-35 258 -521 277 -599 l7 -28 -234 0 c-129 0 -269 3 -310 6 l-75 7 127 271
c69 149 132 287 140 306 15 39 29 60 39 60 4 0 17 -10 29 -23z"/>
<path d="M27392 4375 c-144 -22 -230 -69 -427 -232 l-100 -83 -495 0 c-349 -1
-516 -4 -566 -13 -92 -16 -153 -54 -302 -185 -189 -166 -340 -225 -577 -225
-181 0 -282 21 -553 118 -157 56 -171 35 -41 -61 231 -172 518 -280 769 -291
111 -5 132 -3 190 17 76 25 175 85 280 170 93 75 187 125 276 147 105 26 359
22 674 -12 308 -33 497 -37 555 -11 57 24 136 86 253 198 107 103 148 128 243
147 126 24 729 70 939 71 170 1 320 14 357 32 41 19 42 53 2 77 -57 35 -364
96 -639 127 -202 23 -712 28 -838 9z"/>
<path d="M10727 3918 c-182 -698 -247 -995 -247 -1134 0 -247 114 -360 404
-400 61 -9 114 -19 117 -22 3 -4 11 -59 18 -122 49 -460 110 -577 331 -637 49
-13 104 -17 220 -17 138 0 161 2 213 23 32 12 77 37 100 55 102 78 126 165
146 530 5 92 11 169 13 171 2 2 266 5 588 7 558 3 587 2 629 -16 65 -28 80
-70 81 -216 1 -328 58 -471 215 -530 53 -21 78 -23 220 -23 122 0 175 4 224
17 225 61 291 176 321 556 6 80 13 159 16 176 l4 32 98 12 c287 35 385 107
422 310 14 75 10 148 -26 470 -52 471 -134 1020 -152 1020 -4 0 -22 -32 -41
-71 -71 -147 -303 -446 -446 -575 -232 -209 -484 -356 -769 -449 -267 -88
-530 -124 -776 -106 -201 14 -318 34 -462 76 -435 129 -873 426 -1134 770 -58
77 -149 221 -209 333 -15 28 -31 52 -35 52 -4 0 -41 -132 -83 -292z"/>
<path d="M25860 2473 c0 -29 7 -105 15 -170 65 -497 279 -1203 394 -1294 24
-20 35 -21 166 -16 150 6 215 19 215 43 0 25 -27 70 -170 289 -237 360 -370
611 -525 985 -96 230 -94 228 -95 163z"/>
<path d="M26344 2442 c7 -46 81 -254 139 -387 134 -310 347 -666 492 -822 122
-132 173 -140 409 -60 l130 43 -109 90 c-356 293 -681 640 -933 999 -50 72
-101 141 -112 155 l-22 25 6 -43z"/>
</g>
</svg>
